<svg id="Layer_1" data-name="Layer 1" xmlns="http://www.w3.org/2000/svg" viewBox="0 0 1000 371.96"><path d="M330.19,341.45q0-2.94,4.05-3.68,25.72,0,54.95-16.54t29.22-34.54q0-13.24-17.65-25.55t-17.64-25.91q0-20.21,25.73-35.1t58.44-14.89c3.92,0,6.49.07,7.72.19s2.39-.61,3.49-2.21,2.39-3.36,3.86-5.33,4.16-3.73,8.08-5.33a37.09,37.09,0,0,1,14-2.39q18.75,0,18.75,5.52a4.11,4.11,0,0,1-.37,1.83q-5.88,5.16-20.95,25.37t-22,37.85c-1,2.21-3.13,3.31-6.44,3.31s-6.56-1.89-9.74-5.7-4.78-7.47-4.78-11a39.31,39.31,0,0,1,1.84-11.4,43.37,43.37,0,0,0,1.84-7.16c0-3.18-2-4.78-5.88-4.78q-11.4,0-23.71,6.8t-12.31,19.66q0,12.5,18.38,25.36A57.53,57.53,0,0,1,451.67,269a29,29,0,0,1,5.7,16.91q0,25-32.72,45.39a131.56,131.56,0,0,1-70.93,20.4Q332,351.74,330.19,341.45Z" fill="#006572"/><path d="M665.76,89.31l18-.73c2.45,0,3.68.49,3.68,1.47a12.09,12.09,0,0,1-.74,3.67,22.25,22.25,0,0,1-3.12,5.52,28.84,28.84,0,0,1-5.7,5.88q-8.82,7-21.87,7a176.09,176.09,0,0,0-19.11.74,23.81,23.81,0,0,0-10.48,3.67,44.59,44.59,0,0,0-5.87,4.41,52,52,0,0,0-5.15,7.35q-3.69,5.89-5.15,8.09-19.49,27.21-63,102.54T493,355.42c-.73,2.44-3,3.67-6.8,3.67s-9-3.19-15.62-9.55-9.92-12.87-9.92-19.48,10-26.34,30-59.18,40-65.11,60.09-96.85,30.14-49.37,30.14-52.92-1.47-5.76-4.41-6.62-8.09-1.29-15.44-1.29H548.88c-3.18,0-4.78-1.47-4.78-4.41s1.41-6.06,4.23-9.37,7.1-6.18,12.86-8.64,11.64-4.89,17.65-7.35,13.84-8,23.52-16.54,19.42-19.6,29.22-33.08q9.18-12.48,31.61-12.49,7.72,0,7.72,4.78,0,2.94-16.54,26.83T637.83,82.88q0,6.08,11,6.07Q653.26,89.31,665.76,89.31Z" fill="#006572"/><path d="M624.6,311.31l.73-7.72c0-2-.73-2.94-2.2-2.94q-3.32,0-13.42,9.56a171,171,0,0,1-25.36,19.3q-15.26,9.72-30.51,9.73t-15.25-22.41q0-27.93,24.26-64.33a210.41,210.41,0,0,1,28.85-34q16.35-15.63,39.88-25.73a123.44,123.44,0,0,1,49.25-10.11q13.59,0,23.16,7.17t9.55,17.64q0,10.47-6.25,10.48-3.3,0-8.82-4.05-10.29-7-32.34-7-29,0-55,26.28t-25.91,52a10.78,10.78,0,0,0,2,6.24,6.48,6.48,0,0,0,5.7,2.94q11,0,28.3-15.25t33.81-43.92c.74-2.21,3.43-4.28,8.09-6.25A42.4,42.4,0,0,1,679.73,226q13.59,1.11,13.6,5.88a30.33,30.33,0,0,1-2.76,4.6q-2.76,4.23-9.74,15.25T661.17,288q-12.69,25.18-14.89,39.88-.37,4.41-3.67,4.41Q624.6,332.26,624.6,311.31Z" fill="#006572"/><path d="M821.6,369c0,1.47-1.23,2.44-3.68,2.94q-16.9,0-30.14-35.66t-13.23-62.11A4.92,4.92,0,0,1,778.6,269q15.06-5.15,35.1-19.48t20-30.13q0-5.15-5.15-5.15-22.79,0-63.4,39.88t-57.52,71.49q-1.47,3.3-5.7,3.3t-9.55-7.35q-5.34-7.35-5.33-15.07a31,31,0,0,1,2.57-13.23q37.13-75,70-129.37t56.78-86.56q23.89-32.16,50-54.77T912.38,0q17.28,0,17.28,20.58,0,27.21-19.48,59.36t-43,53.85Q833.74,165,815.35,165c-4.66,0-7-1.22-7-3.68l2.2-3.3q36-25,57.16-57.71T888.86,54.4q0-7.73-6.25-7.72-13.23,0-42.08,39.33a680,680,0,0,0-51.46,81.59q-22.61,42.27-22.6,52.19,0,4.78,4.41,4.78c2.2,0,4.83-1.34,7.9-4s7.41-6.19,13.05-10.48,15.92-10,30.87-17.09S851.06,182.3,863,182.3s17.82,5.64,17.82,16.91q0,14-10.65,26.83a92.17,92.17,0,0,1-23.53,20.58q-12.87,7.73-23.89,15.62t-11.39,13.05q-.75,10.29-.74,18.75t1.11,20.39q1.1,12,2.57,21.14,2.94,14.32,6.25,29Z" fill="#006572"/><path d="M897.31,345.12q-21.31,0-31.24-12.68t-9.92-31.24q0-18.56,8.08-39a174.52,174.52,0,0,1,22.24-39.51q14.14-19.09,37.12-32.16a98.53,98.53,0,0,1,49.44-13q12.12,0,18.37,7.54a27,27,0,0,1,6.25,17.83q0,21.32-15.07,39.69t-33.44,27.93q-18.39,9.57-32.53,10.85t-18.93,5.33q-4.78,4-4.78,16.17t5.52,18.37q5.51,6.25,11,8.46T915,334.1q0,5.14-5.52,8.09A25.47,25.47,0,0,1,897.31,345.12Zm64.69-133q0-11.38-10.29-11.39-14.7,0-32.53,20.58t-17.82,37.12c0,2.7,2.07,4.05,6.24,4.05q15.07,0,34.74-15.44T962,212.07Z" fill="#006572"/><path d="M96.45,225.9q37.72-64.71,55.49-89.54,1.47-2.21,5.14-8.09a52.86,52.86,0,0,1,5.15-7.35,45.63,45.63,0,0,1,5.88-4.41,23.72,23.72,0,0,1,10.48-3.67,176.09,176.09,0,0,1,19.11-.74q13,0,21.87-7a28.79,28.79,0,0,0,5.69-5.88,22.35,22.35,0,0,0,3.13-5.52,12,12,0,0,0,.73-3.67c0-1-1.23-1.47-3.67-1.47l-18,.73q-12.49,0-16.91-.36-11,0-11-6.07T196,52.93Q212.58,29,212.58,26.1q0-4.79-7.71-4.78-22.43,0-31.61,12.49Q158.54,54,144,66.89T120.51,83.43q-9,3.69-17.64,7.35T90,99.42q-4.23,5-4.23,9.37t4.78,4.41h12.13c7.35,0,12.49.44,15.43,1.29s4.41,3.07,4.41,6.62S112.49,142.3,92.4,174q-15.84,25-31.63,50.49A216.63,216.63,0,0,0,96.45,225.9Z" fill="#006572"/><path d="M190.9,200.68q7.75,0,9.66,6.5a345.16,345.16,0,0,1,36.2-6.28,26.73,26.73,0,0,0-6.17-15.84q-6.26-7.53-18.38-7.54a98.52,98.52,0,0,0-49.43,13q-23,13.05-37.12,32.16c14.23-2.49,26.86-5,38.32-7.5Q178.53,200.71,190.9,200.68Z" fill="#006572"/><path d="M335,206.93q22.06,0,32.35,7c.74.55,1.44,1,2.12,1.45,3.69.45,7.21.82,10.52,1.11,1.62-1.64,2.43-4.63,2.43-9q0-10.47-9.56-17.64t-23.15-7.17a123.46,123.46,0,0,0-49.26,10.11,149.45,149.45,0,0,0-18.21,9.33c11.77,1.59,25.67,3.87,39.84,6.18A63,63,0,0,1,335,206.93Z" fill="#006572"/><path d="M403.75,215.93c1.89-.66,3-1.61,3.21-2.91C407.19,211.4,406,212.6,403.75,215.93Z" fill="#006572"/><path d="M207.44,89.31l18-.73c2.44,0,3.67.49,3.67,1.47a12,12,0,0,1-.73,3.67,22.35,22.35,0,0,1-3.13,5.52,28.79,28.79,0,0,1-5.69,5.88q-8.82,7-21.87,7a176.09,176.09,0,0,0-19.11.74,23.72,23.72,0,0,0-10.48,3.67,45.63,45.63,0,0,0-5.88,4.41,52.86,52.86,0,0,0-5.15,7.35q-3.68,5.89-5.14,8.09-19.49,27.21-63,102.54T34.69,355.42c-.73,2.44-3,3.67-6.8,3.67s-9-3.19-15.62-9.55-9.92-12.87-9.92-19.48,10-26.34,29.95-59.18,40-65.11,60.1-96.85,30.13-49.37,30.13-52.92-1.46-5.76-4.41-6.62-8.08-1.29-15.43-1.29H90.56q-4.78,0-4.78-4.41T90,99.42q4.21-5,12.86-8.64t17.64-7.35q9-3.66,23.53-16.54t29.22-33.08q9.18-12.48,31.61-12.49,7.71,0,7.71,4.78,0,2.94-16.54,26.83T179.51,82.88q0,6.08,11,6.07Q194.94,89.31,207.44,89.31Z" fill="none" stroke="#006572" stroke-miterlimit="10"/><path d="M136.5,345.12q-21.33,0-31.24-12.68T95.33,301.2q0-18.56,8.09-39a174.52,174.52,0,0,1,22.24-39.51q14.15-19.09,37.12-32.16a98.52,98.52,0,0,1,49.43-13q12.14,0,18.38,7.54a27.09,27.09,0,0,1,6.25,17.83q0,21.32-15.07,39.69t-33.45,27.93q-18.37,9.57-32.53,10.85t-18.92,5.33q-4.78,4-4.78,16.17t5.51,18.37q5.52,6.25,11,8.46t5.51,4.41q0,5.14-5.51,8.09A25.5,25.5,0,0,1,136.5,345.12Zm64.69-133q0-11.38-10.29-11.39-14.72,0-32.53,20.58t-17.83,37.12q0,4,6.25,4.05,15.06,0,34.73-15.44T201.19,212.07Z" fill="none" stroke="#006572" stroke-miterlimit="10"/><path d="M293.44,311.31l.74-7.72c0-2-.74-2.94-2.21-2.94q-3.3,0-13.41,9.56a171.12,171.12,0,0,1-25.37,19.3q-15.25,9.72-30.5,9.73t-15.25-22.41q0-27.93,24.25-64.33a210.47,210.47,0,0,1,28.86-34q16.35-15.63,39.87-25.73a123.46,123.46,0,0,1,49.26-10.11q13.59,0,23.15,7.17t9.56,17.64q0,10.47-6.25,10.48-3.31,0-8.82-4.05-10.29-7-32.35-7-29,0-54.94,26.28t-25.92,52a10.8,10.8,0,0,0,2,6.24,6.47,6.47,0,0,0,5.69,2.94q11,0,28.3-15.25T324,235.23c.73-2.21,3.43-4.28,8.08-6.25A42.47,42.47,0,0,1,348.57,226q13.6,1.11,13.6,5.88a30.7,30.7,0,0,1-2.75,4.6q-2.76,4.23-9.74,15.25T330,288q-12.67,25.18-14.88,39.88c-.25,2.94-1.47,4.41-3.68,4.41Q293.44,332.26,293.44,311.31Z" fill="none" stroke="#006572" stroke-miterlimit="10"/></svg>